<svg xmlns="http://www.w3.org/2000/svg" id="aim" data-name="Layer 1" viewBox="0 0 32 32"><path d="M29.281,5.232a.478.478,0,0,0,.1.01.5.5,0,0,0,.354-.146l2.121-2.121a.5.5,0,0,0-.255-.844l-1.441-.288L29.869.4a.5.5,0,0,0-.844-.256L26.9,2.268a.5.5,0,0,0-.137.451l.3,1.506-.837.837a15.054,15.054,0,1,0,.707.707l.837-.837Zm-.209-3.719.17.852a.5.5,0,0,0,.392.393l.852.17L29.214,4.2l-1.179-.235L27.8,2.785ZM30,16A14.052,14.052,0,1,1,25.525,5.768L23.4,7.889a11.043,11.043,0,1,0,.707.707l2.12-2.12A13.933,13.933,0,0,1,30,16Zm-14.354.354a.5.5,0,0,0,.707,0l1.363-1.363A1.978,1.978,0,0,1,18,16a2,2,0,1,1-2-2,1.977,1.977,0,0,1,1.01.283l-1.363,1.363A.5.5,0,0,0,15.646,16.354Zm2.087-2.794a3.018,3.018,0,1,0,.707.707l2.137-2.137a6.014,6.014,0,1,1-.707-.707Zm2.844-2.844a7.024,7.024,0,1,0,.707.707L23.4,9.3A10.041,10.041,0,1,1,22.7,8.6Z"/></svg>