<?xml version="1.0" encoding="UTF-8" standalone="no"?>
<svg
   viewBox="0 0 32 32"
   id="coding"
   version="1.1"
   sodipodi:docname="coding.svg"
   inkscape:version="1.3.2 (091e20ef0f, 2023-11-25)"
   xmlns:inkscape="http://www.inkscape.org/namespaces/inkscape"
   xmlns:sodipodi="http://sodipodi.sourceforge.net/DTD/sodipodi-0.dtd"
   xmlns="http://www.w3.org/2000/svg"
   xmlns:svg="http://www.w3.org/2000/svg">
  <defs
     id="defs6" />
  <sodipodi:namedview
     id="namedview6"
     pagecolor="#ffffff"
     bordercolor="#000000"
     borderopacity="0.25"
     inkscape:showpageshadow="2"
     inkscape:pageopacity="0.0"
     inkscape:pagecheckerboard="0"
     inkscape:deskcolor="#d1d1d1"
     inkscape:zoom="25.15625"
     inkscape:cx="16"
     inkscape:cy="16"
     inkscape:window-width="1920"
     inkscape:window-height="1011"
     inkscape:window-x="0"
     inkscape:window-y="0"
     inkscape:window-maximized="1"
     inkscape:current-layer="g4" />
  <g
     data-name="5"
     id="g4">
    <path
       fill="#3fa9f5"
       d="M25,19H4a1,1,0,0,1-1-1V4A1,1,0,0,1,5,4V17H25a1,1,0,0,1,0,2Z"
       id="path1"
       style="fill:#000000" />
    <path
       fill="#2e3192"
       d="M29,23H3a1,1,0,0,1-1-1V3A1,1,0,0,1,3,2H29a1,1,0,0,1,1,1V22A1,1,0,0,1,29,23ZM4,21H28V4H4Z"
       id="path2"
       style="fill:#000000" />
    <path
       fill="#2e3192"
       d="M18,27H14a1,1,0,0,1-1-1V22a1,1,0,0,1,1-1h4a1,1,0,0,1,1,1v4A1,1,0,0,1,18,27Zm-3-2h2V23H15Z"
       id="path3"
       style="fill:#000000" />
    <path
       fill="#2e3192"
       d="M23,30H9a1,1,0,0,1-1-1,4,4,0,0,1,4-4h8a4,4,0,0,1,4,4A1,1,0,0,1,23,30ZM10.269,28H21.731A2,2,0,0,0,20,27H12A2,2,0,0,0,10.269,28Z"
       id="path4"
       style="fill:#000000" />
  </g>
  <g
     data-name="1"
     id="g6"
     style="fill:#000000">
    <path
       fill="#3fa9f5"
       d="M12 14a1 1 0 0 1-.707-.293l-2-2a1 1 0 0 1 0-1.414l2-2a1 1 0 0 1 1.414 1.414L11.414 11l1.293 1.293A1 1 0 0 1 12 14zM20 14a1 1 0 0 1-.707-1.707L20.586 11 19.293 9.707a1 1 0 0 1 1.414-1.414l2 2a1 1 0 0 1 0 1.414l-2 2A1 1 0 0 1 20 14zM15 14a1 1 0 0 1-.894-1.447l2-4a1 1 0 1 1 1.79.894l-2 4A1 1 0 0 1 15 14z"
       id="path5"
       style="fill:#000000" />
    <path
       fill="#2e3192"
       d="M29,20H3a1,1,0,0,1,0-2H29a1,1,0,0,1,0,2Z"
       id="path6"
       style="fill:#000000" />
  </g>
</svg>
