<svg xmlns="http://www.w3.org/2000/svg" width="48" height="48" enable-background="new 0 0 48 48" viewBox="0 0 48 48" id="stress"><path d="M24,43c-0.193,0-0.387-0.056-0.555-0.168l-3-2C20.167,40.646,20,40.334,20,40v-3h-2c-0.552,0-1-0.448-1-1v-3h-2
		c-0.321,0-0.623-0.154-0.811-0.416c-0.188-0.261-0.239-0.596-0.138-0.901l3-9C17.188,22.275,17.569,22,18,22h11
		c0.553,0,1,0.448,1,1v13c0,0.552-0.447,1-1,1h-1v3c0,0.334-0.167,0.646-0.445,0.832l-3,2C24.387,42.944,24.193,43,24,43z
		 M22,39.465l2,1.333l2-1.333V36c0-0.552,0.447-1,1-1h1V24h-9.279l-2.333,7H18c0.552,0,1,0.448,1,1v3h2c0.552,0,1,0.448,1,1V39.465z
		"></path><path d="M31 48H17c-.552 0-1-.448-1-1v-5c0-1.654 1.346-3 3-3h2c.197 0 .391.059.555.168L24 40.798l2.445-1.63C26.609 39.059 26.803 39 27 39h2c1.654 0 3 1.346 3 3v5C32 47.552 31.553 48 31 48zM18 46h12v-4c0-.551-.448-1-1-1h-1.697l-2.748 1.832c-.336.224-.773.224-1.109 0L20.697 41H19c-.551 0-1 .449-1 1V46zM29 24c-.553 0-1-.448-1-1V7c0-.552.447-1 1-1 4.963 0 9 4.038 9 9S33.963 24 29 24zM30 8.071v13.857c3.388-.487 6-3.408 6-6.929S33.388 8.558 30 8.071zM18 20c-.086 0-.174-.011-.261-.035C17.303 19.848 17 19.452 17 19v-7h-6c-.373 0-.715-.208-.887-.538-.172-.331-.146-.73.068-1.035l7-10c.25-.358.705-.511 1.12-.38C18.717.177 19 .563 19 1v5h6c.358 0 .688.191.867.502s.177.692-.003 1.002l-7 12C18.682 19.816 18.349 20 18 20zM12.92 10H18c.552 0 1 .448 1 1v4.301L23.259 8H18c-.552 0-1-.448-1-1V4.172L12.92 10z"></path></svg>